<?xml version="1.0" encoding="UTF-8" standalone="no"?>
<!DOCTYPE svg PUBLIC "-//W3C//DTD SVG 1.1//EN" "http://www.w3.org/Graphics/SVG/1.1/DTD/svg11.dtd">
<svg width="100%" height="100%" viewBox="0 0 1000 1000" version="1.1" xmlns="http://www.w3.org/2000/svg"
     xml:space="preserve" xmlns:serif="http://www.serif.com/"
     style="fill-rule:evenodd;clip-rule:evenodd;stroke-linejoin:round;stroke-miterlimit:2;">
    <rect id="VRC-Mod-Updater" x="0" y="0" width="1000" height="1000" style="fill:none;"/>
    <g id="VRC-Mod-Updater1" serif:id="VRC-Mod-Updater">
        <g transform="matrix(2.07374,0,0,2.07374,-210.057,-455.214)">
            <g>
                <g transform="matrix(1,0,0,1,154.463,7.26885)">
                    <path d="M87.724,418.211L125.242,483.194L50.206,483.194L87.724,418.211Z"
                          style="fill:url(#_Linear1);"/>
                </g>
                <g transform="matrix(-1.14626,1.40377e-16,-1.40377e-16,-1.14626,342.742,1060.46)">
                    <path d="M87.724,418.211L125.242,483.194L50.206,483.194L87.724,418.211Z"
                          style="fill:url(#_Linear2);"/>
                </g>
                <g transform="matrix(0.420454,0.7265,-0.865504,0.500902,409.988,-122.982)">
                    <path d="M484.719,490.463L306.996,490.463L351.427,425.48L440.289,425.48L484.719,490.463Z"
                          style="fill:url(#_Linear3);"/>
                </g>
                <g transform="matrix(0.419697,-0.726937,0.866025,0.5,-258.449,452.775)">
                    <path d="M484.719,490.463L306.996,490.463L351.427,425.48L440.289,425.48L484.719,490.463Z"
                          style="fill:url(#_Linear4);"/>
                </g>
            </g>
        </g>
        <g transform="matrix(1,0,0,1,1.86613,7.28751)">
            <g transform="matrix(1,0,0,0.661078,135.216,188.824)">
                <rect x="545.184" y="571.429" width="134.759" height="266.104" style="fill:url(#_Linear5);"/>
            </g>
            <g transform="matrix(1.02257,0,0,0.815159,-57.2524,157.143)">
                <path d="M721.372,295.896L853.156,461.263L721.372,461.263L721.372,295.896Z"
                      style="fill:url(#_Linear6);"/>
            </g>
            <g transform="matrix(-1.02257,-1.25228e-16,9.98282e-17,-0.815159,1552.81,719.757)">
                <path d="M721.372,295.896L853.156,461.263L721.372,461.263L721.372,295.896Z"
                      style="fill:url(#_Linear7);"/>
            </g>
            <g transform="matrix(1.22129e-15,-1.02257,0.815159,9.73578e-16,283.747,1203.38)">
                <path d="M721.372,295.896L853.156,461.263L721.372,461.263L721.372,295.896Z"
                      style="fill:url(#_Linear8);"/>
            </g>
            <g transform="matrix(-1.22129e-15,-1.02257,-0.815159,9.73578e-16,1211.81,1203.4)">
                <path d="M721.372,295.896L853.156,461.263L721.372,461.263L721.372,295.896Z"
                      style="fill:url(#_Linear9);"/>
            </g>
            <g transform="matrix(-0.511206,0.511206,-0.407518,-0.407518,1304.51,62.13)">
                <path d="M721.372,295.896L853.156,461.263L721.372,461.263L721.372,295.896Z"
                      style="fill:url(#_Linear10);"/>
            </g>
        </g>
    </g>
    <defs>
        <linearGradient id="_Linear1" x1="0" y1="0" x2="1" y2="0" gradientUnits="userSpaceOnUse"
                        gradientTransform="matrix(1.63445e-14,266.926,-266.926,1.63445e-14,215.277,306.881)"><stop offset="0" style="stop-color:rgb(93,93,93);stop-opacity:1"/>
            <stop offset="0.57" style="stop-color:rgb(29,204,198);stop-opacity:1"/>
            <stop offset="1" style="stop-color:rgb(0,255,246);stop-opacity:1"/></linearGradient>
        <linearGradient id="_Linear2" x1="0" y1="0" x2="1" y2="0" gradientUnits="userSpaceOnUse"
                        gradientTransform="matrix(1.42589e-14,-232.866,232.866,1.42589e-14,-23.5529,651.077)"><stop offset="0" style="stop-color:rgb(93,93,93);stop-opacity:1"/>
            <stop offset="0.57" style="stop-color:rgb(29,204,198);stop-opacity:1"/>
            <stop offset="1" style="stop-color:rgb(0,255,246);stop-opacity:1"/></linearGradient>
        <linearGradient id="_Linear3" x1="0" y1="0" x2="1" y2="0" gradientUnits="userSpaceOnUse"
                        gradientTransform="matrix(275.228,133.703,-159.286,231.025,426.711,253.795)"><stop offset="0" style="stop-color:rgb(93,93,93);stop-opacity:1"/>
            <stop offset="0.57" style="stop-color:rgb(29,204,198);stop-opacity:1"/>
            <stop offset="1" style="stop-color:rgb(0,255,246);stop-opacity:1"/></linearGradient>
        <linearGradient id="_Linear4" x1="0" y1="0" x2="1" y2="0" gradientUnits="userSpaceOnUse"
                        gradientTransform="matrix(-275.394,133.463,-158.999,-231.164,517.215,474.715)"><stop offset="0" style="stop-color:rgb(93,93,93);stop-opacity:1"/>
            <stop offset="0.57" style="stop-color:rgb(29,204,198);stop-opacity:1"/>
            <stop offset="1" style="stop-color:rgb(0,255,246);stop-opacity:1"/></linearGradient>
        <linearGradient id="_Linear5" x1="0" y1="0" x2="1" y2="0" gradientUnits="userSpaceOnUse"
                        gradientTransform="matrix(3.38942e-14,837.32,-553.534,5.12711e-14,419.606,0.212188)"><stop offset="0" style="stop-color:rgb(93,93,93);stop-opacity:1"/>
            <stop offset="0.57" style="stop-color:rgb(29,204,198);stop-opacity:1"/>
            <stop offset="1" style="stop-color:rgb(0,255,246);stop-opacity:1"/></linearGradient>
        <linearGradient id="_Linear6" x1="0" y1="0" x2="1" y2="0" gradientUnits="userSpaceOnUse"
                        gradientTransform="matrix(3.31461e-14,679.05,-541.317,4.15798e-14,598.565,39.0371)"><stop offset="0" style="stop-color:rgb(93,93,93);stop-opacity:1"/>
            <stop offset="0.57" style="stop-color:rgb(29,204,198);stop-opacity:1"/>
            <stop offset="1" style="stop-color:rgb(0,255,246);stop-opacity:1"/></linearGradient>
        <linearGradient id="_Linear7" x1="0" y1="0" x2="1" y2="0" gradientUnits="userSpaceOnUse"
                        gradientTransform="matrix(-9.94384e-14,-679.05,541.317,-1.24739e-13,975.962,651.152)"><stop offset="0" style="stop-color:rgb(93,93,93);stop-opacity:1"/>
            <stop offset="0.57" style="stop-color:rgb(29,204,198);stop-opacity:1"/>
            <stop offset="1" style="stop-color:rgb(0,255,246);stop-opacity:1"/></linearGradient>
        <linearGradient id="_Linear8" x1="0" y1="0" x2="1" y2="0" gradientUnits="userSpaceOnUse"
                        gradientTransform="matrix(-541.317,8.52596e-13,-6.79663e-13,-679.05,992.024,332.542)"><stop offset="0" style="stop-color:rgb(93,93,93);stop-opacity:1"/>
            <stop offset="0.57" style="stop-color:rgb(29,204,198);stop-opacity:1"/>
            <stop offset="1" style="stop-color:rgb(0,255,246);stop-opacity:1"/></linearGradient>
        <linearGradient id="_Linear9" x1="0" y1="0" x2="1" y2="0" gradientUnits="userSpaceOnUse"
                        gradientTransform="matrix(-541.317,7.69437e-13,6.13371e-13,679.05,992.044,805.963)"><stop offset="0" style="stop-color:rgb(93,93,93);stop-opacity:1"/>
            <stop offset="0.57" style="stop-color:rgb(29,204,198);stop-opacity:1"/>
            <stop offset="1" style="stop-color:rgb(0,255,246);stop-opacity:1"/></linearGradient>
        <linearGradient id="_Linear10" x1="0" y1="0" x2="1" y2="0" gradientUnits="userSpaceOnUse"
                        gradientTransform="matrix(541.4,-679.153,541.4,679.153,857.309,764.206)"><stop offset="0" style="stop-color:rgb(93,93,93);stop-opacity:1"/>
            <stop offset="0.57" style="stop-color:rgb(29,204,198);stop-opacity:1"/>
            <stop offset="1" style="stop-color:rgb(0,255,246);stop-opacity:1"/></linearGradient>
    </defs>
</svg>
