<?xml version="1.0" encoding="UTF-8" standalone="no"?>
<!DOCTYPE svg PUBLIC "-//W3C//DTD SVG 1.1//EN" "http://www.w3.org/Graphics/SVG/1.1/DTD/svg11.dtd">
<svg width="100%" height="100%" viewBox="0 0 1000 1000" version="1.1" xmlns="http://www.w3.org/2000/svg"
     xml:space="preserve" xmlns:serif="http://www.serif.com/"
     style="fill-rule:evenodd;clip-rule:evenodd;stroke-linejoin:round;stroke-miterlimit:2;">
    <rect id="VRC-Mod-Updater" x="0" y="0" width="1000" height="1000" style="fill:none;"/>
    <g id="VRC-Mod-Updater1" serif:id="VRC-Mod-Updater">
        <g transform="matrix(2.07374,0,0,2.07374,-203.679,-451.903)">
            <g transform="matrix(1,0,0,1,-3.97515,-5.11091)">
                <g transform="matrix(1,0,0,1,154.463,7.26885)">
                    <path d="M87.724,418.211L125.242,483.194L50.206,483.194L87.724,418.211Z"
                          style="fill:url(#_Linear1);"/>
                </g>
                <g transform="matrix(-1.14626,1.40377e-16,-1.40377e-16,-1.14626,342.742,1060.46)">
                    <path d="M87.724,418.211L125.242,483.194L50.206,483.194L87.724,418.211Z"
                          style="fill:url(#_Linear2);"/>
                </g>
                <g transform="matrix(0.420454,0.7265,-0.865504,0.500902,409.988,-122.982)">
                    <path d="M484.719,490.463L306.996,490.463L351.427,425.48L440.289,425.48L484.719,490.463Z"
                          style="fill:url(#_Linear3);"/>
                </g>
                <g transform="matrix(0.419697,-0.726937,0.866025,0.5,-258.449,452.775)">
                    <path d="M484.719,490.463L306.996,490.463L351.427,425.48L440.289,425.48L484.719,490.463Z"
                          style="fill:url(#_Linear4);"/>
                </g>
            </g>
            <g>
                <g transform="matrix(1.51401,0,0,1,-278.435,1.7053e-13)">
                    <g transform="matrix(1,0,0,0.736063,24.1695,152.018)">
                        <rect x="461.747" y="452.861" width="28.167" height="123.104" style="fill:url(#_Linear5);"/>
                    </g>
                    <g transform="matrix(1,0,0,1,5.99741,7.85021)">
                        <path d="M479.919,405.036L508.086,464.241L479.919,464.241L479.919,405.036Z"
                              style="fill:url(#_Linear6);"/>
                    </g>
                    <g transform="matrix(-1,-1.22465e-16,1.22465e-16,-1,994.003,869.277)">
                        <path d="M479.919,405.036L508.086,464.241L479.919,464.241L479.919,405.036Z"
                              style="fill:url(#_Linear7);"/>
                    </g>
                </g>
                <g transform="matrix(0.482221,0,0,0.482221,98.2185,217.917)">
                    <path d="M735.075,382.964L704.401,413.632L603.162,413.632L735.075,281.742L735.075,382.964Z"
                          style="fill:url(#_Linear8);"/>
                </g>
                <g transform="matrix(-0.482221,0,0,0.482221,858.923,217.917)">
                    <path d="M735.075,382.964L704.401,413.632L603.162,413.632L735.075,281.742L735.075,382.964Z"
                          style="fill:url(#_Linear9);"/>
                </g>
                <g transform="matrix(0.482221,0,0,0.746753,98.2185,136.319)">
                    <rect x="744.534" y="296.63" width="88.434" height="55.97" style="fill:url(#_Linear10);"/>
                </g>
                <g transform="matrix(0.482221,0,0,0.482221,98.2185,217.917)">
                    <path d="M788.751,230.027L832.968,281.742L744.534,281.742L788.751,230.027Z"
                          style="fill:url(#_Linear11);"/>
                </g>
            </g>
        </g>
    </g>
    <defs>
        <linearGradient id="_Linear1" x1="0" y1="0" x2="1" y2="0" gradientUnits="userSpaceOnUse"
                        gradientTransform="matrix(1.95536e-13,268.828,-157.44,1.14517e-13,188.841,304.979)"><stop offset="0" style="stop-color:rgb(93,93,93);stop-opacity:1"/>
            <stop offset="0.57" style="stop-color:rgb(29,204,198);stop-opacity:1"/>
            <stop offset="1" style="stop-color:rgb(0,255,246);stop-opacity:1"/></linearGradient>
        <linearGradient id="_Linear2" x1="0" y1="0" x2="1" y2="0" gradientUnits="userSpaceOnUse"
                        gradientTransform="matrix(-1.41865e-13,-234.525,137.351,-8.30836e-14,-0.49005,652.736)"><stop offset="0" style="stop-color:rgb(93,93,93);stop-opacity:1"/>
            <stop offset="0.57" style="stop-color:rgb(29,204,198);stop-opacity:1"/>
            <stop offset="1" style="stop-color:rgb(0,255,246);stop-opacity:1"/></linearGradient>
        <linearGradient id="_Linear3" x1="0" y1="0" x2="1" y2="0" gradientUnits="userSpaceOnUse"
                        gradientTransform="matrix(277.19,134.656,-93.951,136.265,408.975,275.722)"><stop offset="0" style="stop-color:rgb(93,93,93);stop-opacity:1"/>
            <stop offset="0.57" style="stop-color:rgb(29,204,198);stop-opacity:1"/>
            <stop offset="1" style="stop-color:rgb(0,255,246);stop-opacity:1"/></linearGradient>
        <linearGradient id="_Linear4" x1="0" y1="0" x2="1" y2="0" gradientUnits="userSpaceOnUse"
                        gradientTransform="matrix(-277.356,134.414,-93.7819,-136.347,503.43,450.87)"><stop offset="0" style="stop-color:rgb(93,93,93);stop-opacity:1"/>
            <stop offset="0.57" style="stop-color:rgb(29,204,198);stop-opacity:1"/>
            <stop offset="1" style="stop-color:rgb(0,255,246);stop-opacity:1"/></linearGradient>
        <linearGradient id="_Linear5" x1="0" y1="0" x2="1" y2="0" gradientUnits="userSpaceOnUse"
                        gradientTransform="matrix(1.29151e-13,365.224,-103.989,1.5558e-13,383.862,210.741)"><stop offset="0" style="stop-color:rgb(93,93,93);stop-opacity:1"/>
            <stop offset="0.57" style="stop-color:rgb(29,204,198);stop-opacity:1"/>
            <stop offset="1" style="stop-color:rgb(0,255,246);stop-opacity:1"/></linearGradient>
        <linearGradient id="_Linear6" x1="0" y1="0" x2="1" y2="0" gradientUnits="userSpaceOnUse"
                        gradientTransform="matrix(1.29151e-13,268.828,-103.989,1.14517e-13,402.034,299.287)"><stop offset="0" style="stop-color:rgb(93,93,93);stop-opacity:1"/>
            <stop offset="0.57" style="stop-color:rgb(29,204,198);stop-opacity:1"/>
            <stop offset="1" style="stop-color:rgb(0,255,246);stop-opacity:1"/></linearGradient>
        <linearGradient id="_Linear7" x1="0" y1="0" x2="1" y2="0" gradientUnits="userSpaceOnUse"
                        gradientTransform="matrix(-1.62073e-13,-268.828,103.989,-1.27251e-13,585.971,562.139)"><stop offset="0" style="stop-color:rgb(93,93,93);stop-opacity:1"/>
            <stop offset="0.57" style="stop-color:rgb(29,204,198);stop-opacity:1"/>
            <stop offset="1" style="stop-color:rgb(0,255,246);stop-opacity:1"/></linearGradient>
        <linearGradient id="_Linear8" x1="0" y1="0" x2="1" y2="0" gradientUnits="userSpaceOnUse"
                        gradientTransform="matrix(4.05491e-13,557.478,-326.49,2.37477e-13,500,185.02)"><stop offset="0" style="stop-color:rgb(93,93,93);stop-opacity:1"/>
            <stop offset="0.57" style="stop-color:rgb(29,204,198);stop-opacity:1"/>
            <stop offset="1" style="stop-color:rgb(0,255,246);stop-opacity:1"/></linearGradient>
        <linearGradient id="_Linear9" x1="0" y1="0" x2="1" y2="0" gradientUnits="userSpaceOnUse"
                        gradientTransform="matrix(-4.05491e-13,557.478,326.49,2.37477e-13,1077.5,185.02)"><stop offset="0" style="stop-color:rgb(93,93,93);stop-opacity:1"/>
            <stop offset="0.57" style="stop-color:rgb(29,204,198);stop-opacity:1"/>
            <stop offset="1" style="stop-color:rgb(0,255,246);stop-opacity:1"/></linearGradient>
        <linearGradient id="_Linear10" x1="0" y1="0" x2="1" y2="0" gradientUnits="userSpaceOnUse"
                        gradientTransform="matrix(4.05491e-13,359.995,-326.49,1.53353e-13,500,228.747)"><stop offset="0" style="stop-color:rgb(93,93,93);stop-opacity:1"/>
            <stop offset="0.57" style="stop-color:rgb(29,204,198);stop-opacity:1"/>
            <stop offset="1" style="stop-color:rgb(0,255,246);stop-opacity:1"/></linearGradient>
        <linearGradient id="_Linear11" x1="0" y1="0" x2="1" y2="0" gradientUnits="userSpaceOnUse"
                        gradientTransform="matrix(4.05491e-13,557.478,-326.49,2.37477e-13,500,185.02)"><stop offset="0" style="stop-color:rgb(93,93,93);stop-opacity:1"/>
            <stop offset="0.57" style="stop-color:rgb(29,204,198);stop-opacity:1"/>
            <stop offset="1" style="stop-color:rgb(0,255,246);stop-opacity:1"/></linearGradient>
    </defs>
</svg>
